<svg xmlns="http://www.w3.org/2000/svg" viewBox="0 0 512 512" width="512" height="512">
  <defs>
    <linearGradient id="bgGradient" x1="0%" y1="0%" x2="100%" y2="100%">
      <stop offset="0%" style="stop-color:#232946;stop-opacity:1" />
      <stop offset="100%" style="stop-color:#3730a3;stop-opacity:1" />
    </linearGradient>
    <linearGradient id="buttonGradient" x1="0%" y1="0%" x2="100%" y2="100%">
      <stop offset="0%" style="stop-color:#6366f1;stop-opacity:1" />
      <stop offset="100%" style="stop-color:#4f46e5;stop-opacity:1" />
    </linearGradient>
  </defs>
  
  <!-- Background -->
  <rect width="512" height="512" rx="128" ry="128" fill="url(#bgGradient)"/>
  
  <!-- Calculator Body -->
  <rect x="64" y="80" width="384" height="480" rx="32" ry="32" fill="#fff" opacity="0.1"/>
  <rect x="64" y="80" width="384" height="480" rx="32" ry="32" fill="none" stroke="#fff" stroke-width="2" opacity="0.2"/>
  
  <!-- Display -->
  <rect x="96" y="112" width="320" height="80" rx="12" ry="12" fill="#000" opacity="0.3"/>
  
  <!-- Display Text -->
  <text x="256" y="165" font-family="monospace" font-size="32" font-weight="bold" text-anchor="middle" fill="#fff">123.45</text>
  
  <!-- Button Grid -->
  <!-- Row 1 -->
  <rect x="96" y="224" width="64" height="48" rx="8" fill="url(#buttonGradient)" opacity="0.8"/>
  <text x="128" y="255" font-family="sans-serif" font-size="24" font-weight="bold" text-anchor="middle" fill="#fff">C</text>
  
  <rect x="176" y="224" width="64" height="48" rx="8" fill="url(#buttonGradient)" opacity="0.8"/>
  <text x="208" y="255" font-family="sans-serif" font-size="24" font-weight="bold" text-anchor="middle" fill="#fff">±</text>
  
  <rect x="256" y="224" width="64" height="48" rx="8" fill="url(#buttonGradient)" opacity="0.8"/>
  <text x="288" y="255" font-family="sans-serif" font-size="24" font-weight="bold" text-anchor="middle" fill="#fff">%</text>
  
  <rect x="336" y="224" width="64" height="48" rx="8" fill="#fbbf24" opacity="0.9"/>
  <text x="368" y="255" font-family="sans-serif" font-size="24" font-weight="bold" text-anchor="middle" fill="#000">÷</text>
  
  <!-- Row 2 -->
  <rect x="96" y="288" width="64" height="48" rx="8" fill="#fff" opacity="0.9"/>
  <text x="128" y="319" font-family="sans-serif" font-size="24" font-weight="bold" text-anchor="middle" fill="#000">7</text>
  
  <rect x="176" y="288" width="64" height="48" rx="8" fill="#fff" opacity="0.9"/>
  <text x="208" y="319" font-family="sans-serif" font-size="24" font-weight="bold" text-anchor="middle" fill="#000">8</text>
  
  <rect x="256" y="288" width="64" height="48" rx="8" fill="#fff" opacity="0.9"/>
  <text x="288" y="319" font-family="sans-serif" font-size="24" font-weight="bold" text-anchor="middle" fill="#000">9</text>
  
  <rect x="336" y="288" width="64" height="48" rx="8" fill="#fbbf24" opacity="0.9"/>
  <text x="368" y="319" font-family="sans-serif" font-size="24" font-weight="bold" text-anchor="middle" fill="#000">×</text>
  
  <!-- Row 3 -->
  <rect x="96" y="352" width="64" height="48" rx="8" fill="#fff" opacity="0.9"/>
  <text x="128" y="383" font-family="sans-serif" font-size="24" font-weight="bold" text-anchor="middle" fill="#000">4</text>
  
  <rect x="176" y="352" width="64" height="48" rx="8" fill="#fff" opacity="0.9"/>
  <text x="208" y="383" font-family="sans-serif" font-size="24" font-weight="bold" text-anchor="middle" fill="#000">5</text>
  
  <rect x="256" y="352" width="64" height="48" rx="8" fill="#fff" opacity="0.9"/>
  <text x="288" y="383" font-family="sans-serif" font-size="24" font-weight="bold" text-anchor="middle" fill="#000">6</text>
  
  <rect x="336" y="352" width="64" height="48" rx="8" fill="#fbbf24" opacity="0.9"/>
  <text x="368" y="383" font-family="sans-serif" font-size="24" font-weight="bold" text-anchor="middle" fill="#000">−</text>
  
  <!-- Calculator Mode Icon -->
  <circle cx="128" cy="456" r="16" fill="#fbbf24" opacity="0.8"/>
  <text x="128" y="461" font-family="sans-serif" font-size="12" font-weight="bold" text-anchor="middle" fill="#000">ƒ</text>
  
  <!-- Brand Text -->
  <text x="256" y="500" font-family="sans-serif" font-size="28" font-weight="bold" text-anchor="middle" fill="#fff" opacity="0.9">Numix</text>
</svg> 